<svg xmlns="http://www.w3.org/2000/svg" width="40" height="40" viewBox="0 0 40 40">
  <g id="Grupo_53" data-name="Grupo 53" transform="translate(-1203 -249)">
    <circle id="Elipse_7" data-name="Elipse 7" cx="20" cy="20" r="20" transform="translate(1203 249)" fill="#fff"/>
    <path id="Icon_ionic-ios-arrow-round-forward" data-name="Icon ionic-ios-arrow-round-forward" d="M13.671,11.451a.7.7,0,0,1,.006,1l-3.379,3.3h12.86a.7.7,0,1,1,0,1.408H10.3l3.379,3.3a.7.7,0,0,1-.006,1,.733.733,0,0,1-1.017-.005l-4.579-4.5h0a.789.789,0,0,1-.15-.222.657.657,0,0,1-.056-.271.7.7,0,0,1,.206-.493l4.579-4.5A.721.721,0,0,1,13.671,11.451Z" transform="translate(1207.125 252.748)" fill="#fa7d09"/>
  </g>
</svg>
