<svg xmlns="http://www.w3.org/2000/svg" xmlns:xlink="http://www.w3.org/1999/xlink" width="54.774" height="58" viewBox="0 0 54.774 58">
  <defs>
    <clipPath id="clip-path">
      <rect id="Rectángulo_18" data-name="Rectángulo 18" width="54.774" height="58" transform="translate(0 0)" fill="#fa7d09"/>
    </clipPath>
  </defs>
  <g id="Grupo_5" data-name="Grupo 5" transform="translate(0 -0.005)">
    <g id="Grupo_4" data-name="Grupo 4" transform="translate(0 0.005)" clip-path="url(#clip-path)">
      <path id="Trazado_1" data-name="Trazado 1" d="M1623.95,374.124a1.058,1.058,0,0,1-.729-1.826c.886-.841.883-1.832.8-3.511-.1-2.134-.231-4.789,2.65-7.341,4.7-4.169,5.524-11.339,1.949-17.05a1.058,1.058,0,1,1,1.793-1.123c4.126,6.59,3.142,14.9-2.34,19.756-2.121,1.879-2.033,3.713-1.939,5.655.082,1.686.174,3.6-1.458,5.148a1.055,1.055,0,0,1-.729.291" transform="translate(-1589.442 -335.712)" fill="#fa7d09"/>
      <path id="Trazado_2" data-name="Trazado 2" d="M1624.876,90.3a1.053,1.053,0,0,1-.57-.168c-.276-.177-.561-.346-.847-.5a1.058,1.058,0,0,1,1.011-1.859c.331.18.66.375.979.579a1.058,1.058,0,0,1-.572,1.949" transform="translate(-1589.455 -85.835)" fill="#fa7d09"/>
      <path id="Trazado_3" data-name="Trazado 3" d="M1282.29,2.67a1.081,1.081,0,0,1-.284-.039,13.936,13.936,0,0,0-3.735-.51,1.058,1.058,0,0,1,0-2.116,16.074,16.074,0,0,1,4.3.587,1.058,1.058,0,0,1-.283,2.078" transform="translate(-1250.886 -0.005)" fill="#fa7d09"/>
      <path id="Trazado_4" data-name="Trazado 4" d="M769.891,1248.567a1.055,1.055,0,0,1-.729-.291c-1.632-1.55-1.54-3.462-1.458-5.148.094-1.942.182-3.776-1.939-5.655a1.058,1.058,0,0,1,1.4-1.584c2.88,2.552,2.752,5.207,2.649,7.341-.081,1.679-.084,2.67.8,3.511a1.058,1.058,0,0,1-.729,1.826" transform="translate(-749.633 -1210.155)" fill="#fa7d09"/>
      <path id="Trazado_5" data-name="Trazado 5" d="M551.319,24.971a1.058,1.058,0,0,1-.885-.477c-3.936-5.986-2.9-14.5,2.407-19.81A15.874,15.874,0,0,1,564.138,0a1.058,1.058,0,1,1,0,2.116,13.772,13.772,0,0,0-9.8,4.059c-4.614,4.613-5.532,11.986-2.135,17.151a1.059,1.059,0,0,1-.883,1.64" transform="translate(-536.755 -0.005)" fill="#fa7d09"/>
      <path id="Trazado_6" data-name="Trazado 6" d="M956.858,1763.06H943.039a1.058,1.058,0,1,1,0-2.116h13.819a1.058,1.058,0,1,1,0,2.116" transform="translate(-922.565 -1724.648)" fill="#fa7d09"/>
      <path id="Trazado_7" data-name="Trazado 7" d="M1226.561,2096.616h-4.993a1.058,1.058,0,1,1,0-2.116h4.993a1.058,1.058,0,1,1,0,2.116" transform="translate(-1195.353 -2051.329)" fill="#fa7d09"/>
      <path id="Trazado_8" data-name="Trazado 8" d="M843.837,1936.5a1.058,1.058,0,1,1,0-2.116.627.627,0,0,0,0-1.254H828.6a.627.627,0,0,0,0,1.254h3.573a1.058,1.058,0,1,1,0,2.116H828.6a2.743,2.743,0,1,1,0-5.486h15.238a2.743,2.743,0,1,1,0,5.486" transform="translate(-808.835 -1891.209)" fill="#fa7d09"/>
      <path id="Trazado_9" data-name="Trazado 9" d="M1487.243,2264.093h-.407a1.058,1.058,0,1,1,0-2.116h.407a1.058,1.058,0,0,1,0,2.116" transform="translate(-1455.153 -2215.354)" fill="#fa7d09"/>
      <path id="Trazado_10" data-name="Trazado 10" d="M1056.266,2264.093h-6.326a1.058,1.058,0,0,1,0-2.116h6.326a1.058,1.058,0,1,1,0,2.116" transform="translate(-1027.263 -2215.354)" fill="#fa7d09"/>
      <path id="Trazado_11" data-name="Trazado 11" d="M943.482,759.588a.647.647,0,0,1-.647-.647c0-14.64-5.2-21.044-5.249-21.107a.647.647,0,1,1,.993-.828c.227.272,5.549,6.831,5.549,21.935a.647.647,0,0,1-.647.647" transform="translate(-918.113 -721.588)" fill="#fa7d09"/>
      <path id="Trazado_12" data-name="Trazado 12" d="M1502.77,743.432a.647.647,0,0,1-.605-.874,20.506,20.506,0,0,1,2.9-5.553.647.647,0,1,1,.993.828,19.774,19.774,0,0,0-2.685,5.181.647.647,0,0,1-.605.419" transform="translate(-1471.162 -721.585)" fill="#fa7d09"/>
      <path id="Trazado_13" data-name="Trazado 13" d="M1376.381,1166.761a.647.647,0,0,1-.647-.646,50.5,50.5,0,0,1,1.6-13.12.647.647,0,1,1,1.248.337,49.22,49.22,0,0,0-1.556,12.783.647.647,0,0,1-.647.646" transform="translate(-1347.378 -1128.761)" fill="#fa7d09"/>
      <path id="Trazado_14" data-name="Trazado 14" d="M945.3,614.731a2.818,2.818,0,0,1-2.335-1.575c-.453-.651-.735-1.02-1.273-1.02s-.821.369-1.274,1.02a2.818,2.818,0,0,1-2.336,1.575.647.647,0,1,1,0-1.293c.538,0,.821-.369,1.274-1.021a2.519,2.519,0,0,1,4.671,0c.453.651.735,1.02,1.274,1.02s.82-.368,1.272-1.02a2.816,2.816,0,0,1,2.334-1.575.647.647,0,1,1,0,1.293c-.537,0-.82.368-1.272,1.02a2.816,2.816,0,0,1-2.334,1.575" transform="translate(-918.116 -598.252)" fill="#fa7d09"/>
      <path id="Trazado_15" data-name="Trazado 15" d="M1559.057,685.575a2.68,2.68,0,0,1-2.2-1.377.647.647,0,0,1,1.055-.748c.4.564.672.832,1.141.832a.647.647,0,1,1,0,1.293" transform="translate(-1524.655 -669.096)" fill="#fa7d09"/>
      <path id="Trazado_16" data-name="Trazado 16" d="M844.125,212.586a.47.47,0,0,1-.372-.758,12.614,12.614,0,0,1,5.48-4.07.47.47,0,0,1,.335.879A11.673,11.673,0,0,0,844.5,212.4a.47.47,0,0,1-.372.182" transform="translate(-826.266 -203.446)" fill="#fa7d09"/>
      <path id="Trazado_17" data-name="Trazado 17" d="M759.968,502.352a.47.47,0,0,1-.439-.638c.131-.342.278-.682.437-1.01a.47.47,0,0,1,.846.412c-.147.3-.284.617-.405.934a.47.47,0,0,1-.439.3" transform="translate(-743.844 -490.124)" fill="#fa7d09"/>
      <path id="Trazado_18" data-name="Trazado 18" d="M1691.585,1017.411a.47.47,0,0,1-.306-.828,11.625,11.625,0,0,0,2.931-3.8.47.47,0,1,1,.847.408,12.562,12.562,0,0,1-3.166,4.109.47.47,0,0,1-.306.113" transform="translate(-1656.258 -991.645)" fill="#fa7d09"/>
      <path id="Trazado_19" data-name="Trazado 19" d="M276.206,1355.39a.94.94,0,0,1-.718-1.547,47.545,47.545,0,0,1,7.769-7.241.94.94,0,0,1,1.13,1.5,45.7,45.7,0,0,0-7.462,6.952.938.938,0,0,1-.719.334" transform="translate(-269.592 -1318.661)" fill="#fa7d09"/>
      <path id="Trazado_20" data-name="Trazado 20" d="M13.033,893.1c-5.711,0-9.887-1.834-11.855-5.243C-.869,884.314-.234,879.5,2.965,874.3a.94.94,0,1,1,1.6.986c-2.82,4.584-3.446,8.715-1.761,11.633,1.78,3.083,5.963,4.6,11.775,4.256,6.043-.352,13.038-2.662,19.7-6.506s12.156-8.746,15.482-13.8c3.2-4.865,3.981-9.243,2.2-12.326-1.177-2.039-3.466-3.421-6.619-4a.94.94,0,0,1,.338-1.85c3.713.678,6.449,2.374,7.911,4.906,2.154,3.731,1.352,8.809-2.259,14.3-3.484,5.3-9.207,10.412-16.113,14.4s-14.2,6.387-20.527,6.755q-.849.05-1.658.049" transform="translate(0 -835.101)" fill="#fa7d09"/>
      <path id="Trazado_21" data-name="Trazado 21" d="M41.141,902.709a.589.589,0,0,1-.246-.054c-1.588-.734-3.175-1.558-4.718-2.449-6.86-3.961-12.541-9.035-15.995-14.288-3.533-5.373-4.332-10.32-2.248-13.93,1.452-2.515,4.216-4.173,7.991-4.791a.588.588,0,1,1,.19,1.16c-3.416.56-5.894,2.019-7.164,4.219-1.85,3.2-1.065,7.714,2.212,12.7,3.355,5.1,8.9,10.045,15.6,13.916,1.513.873,3.068,1.681,4.624,2.4a.588.588,0,0,1-.247,1.121" transform="translate(-16.45 -849.315)" fill="#fa7d09"/>
      <path id="Trazado_22" data-name="Trazado 22" d="M1451.992,1906.1a37.634,37.634,0,0,1-11.614-2.077.588.588,0,1,1,.368-1.116,33.209,33.209,0,0,0,13.722,1.882c3.9-.438,6.7-1.941,8.092-4.347,1.78-3.082,1.109-7.412-1.888-12.191a.588.588,0,0,1,1-.625c3.24,5.166,3.918,9.926,1.91,13.4-1.928,3.339-6.109,5.07-11.587,5.07" transform="translate(-1410.295 -1848.445)" fill="#fa7d09"/>
      <path id="Trazado_23" data-name="Trazado 23" d="M1907.339,1342.978a.587.587,0,0,1-.449-.208,46.682,46.682,0,0,0-8.333-7.607.588.588,0,0,1,.689-.953,47.859,47.859,0,0,1,8.543,7.8.588.588,0,0,1-.449.967" transform="translate(-1859.186 -1306.601)" fill="#fa7d09"/>
    </g>
  </g>
</svg>
