<svg xmlns="http://www.w3.org/2000/svg" width="40" height="40" viewBox="0 0 40 40">
  <g id="Grupo_54" data-name="Grupo 54" transform="translate(-1263 -249)">
    <circle id="Elipse_8" data-name="Elipse 8" cx="20" cy="20" r="20" transform="translate(1263 249)" fill="#fff"/>
    <path id="Icon_ionic-ios-arrow-round-forward" data-name="Icon ionic-ios-arrow-round-forward" d="M18.079,11.451a.7.7,0,0,0-.006,1l3.379,3.3H8.592a.7.7,0,1,0,0,1.408H21.446l-3.379,3.3a.7.7,0,0,0,.006,1,.733.733,0,0,0,1.017-.005l4.579-4.5h0a.789.789,0,0,0,.15-.222.657.657,0,0,0,.056-.271.7.7,0,0,0-.206-.493l-4.579-4.5A.721.721,0,0,0,18.079,11.451Z" transform="translate(1267.125 252.748)" fill="#fa7d09"/>
  </g>
</svg>
