<svg xmlns="http://www.w3.org/2000/svg" xmlns:xlink="http://www.w3.org/1999/xlink" width="90.969" height="118.143" viewBox="0 0 90.969 118.143">
  <defs>
    <clipPath id="clip-path">
      <rect id="Rectángulo_41" data-name="Rectángulo 41" width="90.969" height="118.143" transform="translate(0 0)" fill="#fff"/>
    </clipPath>
  </defs>
  <g id="Grupo_13" data-name="Grupo 13" transform="translate(-558 -451)" opacity="0.299">
    <g id="Grupo_11" data-name="Grupo 11" transform="translate(558 451)" clip-path="url(#clip-path)">
      <path id="Trazado_32" data-name="Trazado 32" d="M5.155,2.578A2.578,2.578,0,1,1,2.577,0,2.577,2.577,0,0,1,5.155,2.578" fill="#fff"/>
      <path id="Trazado_33" data-name="Trazado 33" d="M5.155,18.719a2.578,2.578,0,1,1-2.578-2.577,2.578,2.578,0,0,1,2.578,2.577" fill="#fff"/>
      <path id="Trazado_34" data-name="Trazado 34" d="M5.155,34.86a2.578,2.578,0,1,1-2.578-2.578A2.578,2.578,0,0,1,5.155,34.86" fill="#fff"/>
      <path id="Trazado_35" data-name="Trazado 35" d="M5.155,51a2.578,2.578,0,1,1-2.578-2.577A2.578,2.578,0,0,1,5.155,51" fill="#fff"/>
      <path id="Trazado_36" data-name="Trazado 36" d="M5.155,67.142a2.578,2.578,0,1,1-2.578-2.577,2.578,2.578,0,0,1,2.578,2.577" fill="#fff"/>
      <path id="Trazado_37" data-name="Trazado 37" d="M22.318,2.578A2.578,2.578,0,1,1,19.74,0a2.577,2.577,0,0,1,2.578,2.577" fill="#fff"/>
      <path id="Trazado_38" data-name="Trazado 38" d="M22.318,18.719a2.578,2.578,0,1,1-2.578-2.577,2.578,2.578,0,0,1,2.578,2.577" fill="#fff"/>
      <path id="Trazado_39" data-name="Trazado 39" d="M22.318,34.86a2.578,2.578,0,1,1-2.578-2.578,2.578,2.578,0,0,1,2.578,2.578" fill="#fff"/>
      <path id="Trazado_40" data-name="Trazado 40" d="M22.318,51a2.578,2.578,0,1,1-2.578-2.577A2.578,2.578,0,0,1,22.318,51" fill="#fff"/>
      <path id="Trazado_41" data-name="Trazado 41" d="M22.318,67.142a2.578,2.578,0,1,1-2.578-2.577,2.578,2.578,0,0,1,2.578,2.577" fill="#fff"/>
      <path id="Trazado_42" data-name="Trazado 42" d="M39.48,2.578A2.577,2.577,0,1,1,36.9,0,2.577,2.577,0,0,1,39.48,2.578" fill="#fff"/>
      <path id="Trazado_43" data-name="Trazado 43" d="M39.48,18.719A2.577,2.577,0,1,1,36.9,16.142a2.578,2.578,0,0,1,2.577,2.577" fill="#fff"/>
      <path id="Trazado_44" data-name="Trazado 44" d="M39.48,34.86A2.577,2.577,0,1,1,36.9,32.282,2.578,2.578,0,0,1,39.48,34.86" fill="#fff"/>
      <path id="Trazado_45" data-name="Trazado 45" d="M39.48,51A2.577,2.577,0,1,1,36.9,48.424,2.578,2.578,0,0,1,39.48,51" fill="#fff"/>
      <path id="Trazado_46" data-name="Trazado 46" d="M39.48,67.142A2.577,2.577,0,1,1,36.9,64.565a2.578,2.578,0,0,1,2.577,2.577" fill="#fff"/>
      <path id="Trazado_47" data-name="Trazado 47" d="M5.155,83.283a2.578,2.578,0,1,1-2.578-2.577,2.578,2.578,0,0,1,2.578,2.577" fill="#fff"/>
      <path id="Trazado_48" data-name="Trazado 48" d="M5.155,99.424a2.578,2.578,0,1,1-2.578-2.578,2.578,2.578,0,0,1,2.578,2.578" fill="#fff"/>
      <path id="Trazado_49" data-name="Trazado 49" d="M5.155,115.566a2.578,2.578,0,1,1-2.578-2.578,2.578,2.578,0,0,1,2.578,2.578" fill="#fff"/>
      <path id="Trazado_50" data-name="Trazado 50" d="M22.318,83.283a2.578,2.578,0,1,1-2.578-2.577,2.578,2.578,0,0,1,2.578,2.577" fill="#fff"/>
      <path id="Trazado_51" data-name="Trazado 51" d="M22.318,99.424a2.578,2.578,0,1,1-2.578-2.578,2.578,2.578,0,0,1,2.578,2.578" fill="#fff"/>
      <path id="Trazado_52" data-name="Trazado 52" d="M22.318,115.566a2.578,2.578,0,1,1-2.578-2.578,2.578,2.578,0,0,1,2.578,2.578" fill="#fff"/>
      <path id="Trazado_53" data-name="Trazado 53" d="M39.48,83.283A2.577,2.577,0,1,1,36.9,80.706a2.578,2.578,0,0,1,2.577,2.577" fill="#fff"/>
      <path id="Trazado_54" data-name="Trazado 54" d="M39.48,99.424A2.577,2.577,0,1,1,36.9,96.846a2.577,2.577,0,0,1,2.577,2.578" fill="#fff"/>
      <path id="Trazado_55" data-name="Trazado 55" d="M39.48,115.566a2.577,2.577,0,1,1-2.577-2.578,2.577,2.577,0,0,1,2.577,2.578" fill="#fff"/>
      <path id="Trazado_56" data-name="Trazado 56" d="M56.643,2.578A2.578,2.578,0,1,1,54.065,0a2.577,2.577,0,0,1,2.578,2.577" fill="#fff"/>
      <path id="Trazado_57" data-name="Trazado 57" d="M56.643,18.719a2.578,2.578,0,1,1-2.578-2.577,2.578,2.578,0,0,1,2.578,2.577" fill="#fff"/>
      <path id="Trazado_58" data-name="Trazado 58" d="M56.643,34.86a2.578,2.578,0,1,1-2.578-2.578,2.578,2.578,0,0,1,2.578,2.578" fill="#fff"/>
      <path id="Trazado_59" data-name="Trazado 59" d="M56.643,51a2.578,2.578,0,1,1-2.578-2.577A2.578,2.578,0,0,1,56.643,51" fill="#fff"/>
      <path id="Trazado_60" data-name="Trazado 60" d="M56.643,67.142a2.578,2.578,0,1,1-2.578-2.577,2.578,2.578,0,0,1,2.578,2.577" fill="#fff"/>
      <path id="Trazado_61" data-name="Trazado 61" d="M73.806,2.578A2.577,2.577,0,1,1,71.228,0a2.577,2.577,0,0,1,2.578,2.577" fill="#fff"/>
      <path id="Trazado_62" data-name="Trazado 62" d="M73.806,18.719a2.577,2.577,0,1,1-2.578-2.577,2.578,2.578,0,0,1,2.578,2.577" fill="#fff"/>
      <path id="Trazado_63" data-name="Trazado 63" d="M73.806,34.86a2.577,2.577,0,1,1-2.578-2.578,2.578,2.578,0,0,1,2.578,2.578" fill="#fff"/>
      <path id="Trazado_64" data-name="Trazado 64" d="M73.806,51a2.577,2.577,0,1,1-2.578-2.577A2.578,2.578,0,0,1,73.806,51" fill="#fff"/>
      <path id="Trazado_65" data-name="Trazado 65" d="M73.806,67.142a2.577,2.577,0,1,1-2.578-2.577,2.578,2.578,0,0,1,2.578,2.577" fill="#fff"/>
      <path id="Trazado_66" data-name="Trazado 66" d="M90.969,2.578A2.577,2.577,0,1,1,88.391,0a2.577,2.577,0,0,1,2.578,2.577" fill="#fff"/>
      <path id="Trazado_67" data-name="Trazado 67" d="M90.969,18.719a2.577,2.577,0,1,1-2.578-2.577,2.578,2.578,0,0,1,2.578,2.577" fill="#fff"/>
      <path id="Trazado_68" data-name="Trazado 68" d="M90.969,34.86a2.577,2.577,0,1,1-2.578-2.578,2.578,2.578,0,0,1,2.578,2.578" fill="#fff"/>
      <path id="Trazado_69" data-name="Trazado 69" d="M90.969,51a2.577,2.577,0,1,1-2.578-2.577A2.578,2.578,0,0,1,90.969,51" fill="#fff"/>
      <path id="Trazado_70" data-name="Trazado 70" d="M90.969,67.142a2.577,2.577,0,1,1-2.578-2.577,2.578,2.578,0,0,1,2.578,2.577" fill="#fff"/>
      <path id="Trazado_71" data-name="Trazado 71" d="M56.643,83.283a2.578,2.578,0,1,1-2.578-2.577,2.578,2.578,0,0,1,2.578,2.577" fill="#fff"/>
      <path id="Trazado_72" data-name="Trazado 72" d="M56.643,99.424a2.578,2.578,0,1,1-2.578-2.578,2.578,2.578,0,0,1,2.578,2.578" fill="#fff"/>
      <path id="Trazado_73" data-name="Trazado 73" d="M56.643,115.566a2.578,2.578,0,1,1-2.578-2.578,2.578,2.578,0,0,1,2.578,2.578" fill="#fff"/>
      <path id="Trazado_74" data-name="Trazado 74" d="M73.806,83.283a2.577,2.577,0,1,1-2.578-2.577,2.578,2.578,0,0,1,2.578,2.577" fill="#fff"/>
      <path id="Trazado_75" data-name="Trazado 75" d="M73.806,99.424a2.577,2.577,0,1,1-2.578-2.578,2.578,2.578,0,0,1,2.578,2.578" fill="#fff"/>
      <path id="Trazado_76" data-name="Trazado 76" d="M73.806,115.566a2.577,2.577,0,1,1-2.578-2.578,2.578,2.578,0,0,1,2.578,2.578" fill="#fff"/>
      <path id="Trazado_77" data-name="Trazado 77" d="M90.969,83.283a2.577,2.577,0,1,1-2.578-2.577,2.578,2.578,0,0,1,2.578,2.577" fill="#fff"/>
      <path id="Trazado_78" data-name="Trazado 78" d="M90.969,99.424a2.577,2.577,0,1,1-2.578-2.578,2.578,2.578,0,0,1,2.578,2.578" fill="#fff"/>
      <path id="Trazado_79" data-name="Trazado 79" d="M90.969,115.566a2.577,2.577,0,1,1-2.578-2.578,2.578,2.578,0,0,1,2.578,2.578" fill="#fff"/>
    </g>
  </g>
</svg>
