<svg xmlns="http://www.w3.org/2000/svg" xmlns:xlink="http://www.w3.org/1999/xlink" width="596.512" height="495.495" viewBox="0 0 596.512 495.495">
  <defs>
    <clipPath id="clip-path">
      <rect id="Rectángulo_39" data-name="Rectángulo 39" width="596.512" height="495.495" fill="#fa7d09"/>
    </clipPath>
  </defs>
  <g id="Grupo_8" data-name="Grupo 8" opacity="0.213">
    <g id="Grupo_7" data-name="Grupo 7" clip-path="none">
      <path id="Trazado_26" data-name="Trazado 26" d="M570.007,242.464c-16.342-24.3-40-44.914-70.312-61.267-28.939-15.613-63.343-27.048-102.255-33.987-41.844-7.462-63.7-41.245-84.842-73.914-14.591-22.552-29.68-45.87-51.136-59.806A81.913,81.913,0,0,0,223.263.4c-15.7-1.412-32.967.931-52.788,7.161-18.051,5.675-36.148,16.974-53.789,33.584C100.124,56.736,84.295,76.67,69.638,100.388,41.18,146.442,19.317,203.14,8.077,260.037c-8.8,44.549-10.446,86.734-4.755,122,6.359,39.4,21.344,69.18,44.541,88.508C66.413,486,90.013,494.357,118.008,495.387q2.941.108,5.948.108c28.943,0,62.575-7.5,100.08-22.327C288.715,447.6,360.505,444.4,423.845,441.58c41.825-1.862,81.329-3.621,110.876-11.982,33.072-9.358,51.124-26.127,56.81-52.773,11-51.563,3.76-96.768-21.524-134.361M588.137,376.1c-11.781,55.214-79.152,58.214-164.447,62.012-63.611,2.832-135.71,6.042-200.93,31.827-39.656,15.679-74.86,23.076-104.625,21.978-27.209-1-50.1-9.089-68.052-24.044-22.534-18.776-37.114-47.844-43.335-86.4-5.626-34.859-3.989-76.621,4.734-120.77,11.162-56.5,32.864-112.788,61.109-158.5,14.5-23.46,30.133-43.157,46.474-58.543,17.258-16.248,34.9-27.284,52.452-32.8C251.753-14.354,279.893,29.136,309.685,75.18c21.542,33.293,43.817,67.719,87.146,75.446,38.548,6.874,72.6,18.188,101.216,33.625,29.813,16.085,53.054,36.322,69.08,60.15,24.738,36.782,31.806,81.092,21.009,131.7M487.608,185.19c-27.2-14.676-59.543-25.425-96.12-31.947-39.333-7.015-59.881-38.77-79.751-69.48-13.717-21.2-27.9-43.119-48.068-56.218C241.007,12.825,213.03,11,178.141,21.971c-16.967,5.333-33.979,15.955-50.562,31.568C112.01,68.2,97.132,86.935,83.354,109.23,56.6,152.521,36.052,205.817,25.486,259.3c-8.273,41.877-9.819,81.531-4.47,114.676,5.977,37.038,20.063,65.029,41.868,83.2,17.438,14.53,39.622,22.388,65.937,23.355q2.765.1,5.593.1c27.206,0,58.819-7.05,94.075-20.988,60.8-24.036,128.281-27.041,187.82-29.692,39.315-1.75,76.45-3.4,104.224-11.262,31.088-8.8,48.057-24.56,53.4-49.607,10.341-48.469,3.534-90.962-20.231-126.3-15.363-22.842-37.6-42.219-66.093-57.592M570.742,368.4c-11.073,51.9-74.4,54.721-154.579,58.291-59.795,2.662-127.568,5.68-188.875,29.918-37.277,14.737-70.359,21.693-98.348,20.659-25.575-.94-47.1-8.544-63.968-22.6-21.182-17.649-34.888-44.972-40.736-81.211-5.288-32.767-3.749-72.023,4.45-113.524,10.492-53.109,30.893-106.02,57.443-148.987,13.627-22.052,28.325-40.568,43.686-55.031,16.221-15.273,32.809-25.646,49.3-30.831,15.348-4.825,28.664-6.974,40.382-6.974,45.867,0,67.191,32.952,89.5,67.427,20.249,31.3,41.188,63.655,81.917,70.919,36.236,6.462,68.246,17.1,95.144,31.607C514.083,203.18,535.93,222.2,550.995,244.6c23.253,34.575,29.9,76.227,19.748,123.8m-94.5-179.457c-25.571-13.8-55.97-23.9-90.353-30.031-36.975-6.594-56.288-36.444-74.967-65.311C298.034,73.675,284.7,53.071,265.743,40.758c-21.3-13.837-47.6-15.551-80.4-5.241-31.19,9.805-62,38.168-89.1,82.024-25.145,40.694-44.464,90.793-54.4,141.066-7.777,39.364-9.23,76.639-4.2,107.8,5.619,34.816,18.86,61.128,39.356,78.206,16.392,13.658,37.245,21.045,61.98,21.954q2.6.1,5.257.1c25.574,0,55.29-6.627,88.43-19.728,57.151-22.594,120.585-25.419,176.551-27.911,36.957-1.645,71.864-3.2,97.97-10.587,29.223-8.269,45.173-23.086,50.2-46.63,9.72-45.561,3.322-85.5-19.017-118.721-14.441-21.472-35.344-39.686-62.128-54.136m78.146,172.218c-10.409,48.788-69.938,51.438-145.3,54.794-56.207,2.5-119.914,5.339-177.542,28.123C196.505,457.931,165.4,464.464,139.1,463.5c-24.041-.884-44.272-8.032-60.13-21.245-19.911-16.591-32.795-42.275-38.291-76.339-4.971-30.8-3.525-67.7,4.182-106.712,9.863-49.922,29.039-99.659,54-140.049,12.809-20.729,26.625-38.133,41.064-51.728,15.248-14.357,30.841-24.108,46.346-28.982,14.426-4.535,26.944-6.556,37.959-6.556,43.115,0,63.159,30.975,84.127,63.381,19.034,29.417,38.716,59.837,77,66.664,34.062,6.075,64.152,16.071,89.436,29.711,26.342,14.212,46.878,32.093,61.039,53.149,21.858,32.5,28.1,71.653,18.563,116.371M465.565,192.472c-24.036-12.968-52.612-22.466-84.932-28.229-34.755-6.2-52.91-34.257-70.468-61.392-12.12-18.731-24.652-38.1-42.473-49.674-20.024-13.006-44.744-14.616-75.573-4.926-29.318,9.217-58.28,35.878-83.754,77.1-23.637,38.252-41.8,85.344-51.132,132.6-7.31,37-8.676,72.04-3.95,101.328,5.281,32.727,17.728,57.46,36.995,73.514,15.408,12.839,35.01,19.781,58.262,20.636q2.442.09,4.941.09c24.04,0,51.973-6.229,83.125-18.545,53.721-21.238,113.349-23.894,165.958-26.236,34.739-1.547,67.552-3.008,92.092-9.952,27.471-7.773,42.464-21.7,47.186-43.832,9.137-42.827,3.123-80.374-17.876-111.6-13.574-20.184-33.223-37.305-58.4-50.888m73.457,161.885c-9.784,45.86-65.742,48.352-136.586,51.506-52.835,2.353-112.72,5.018-166.89,26.435-30.815,12.182-58.387,18.344-82.059,18.342-1.631,0-3.248-.029-4.841-.087-22.6-.831-41.616-7.55-56.523-19.971-18.717-15.6-30.827-39.738-35.995-71.759-4.672-28.953-3.313-63.64,3.932-100.31,9.27-46.927,27.3-93.679,50.757-131.645,12.041-19.485,25.028-35.846,38.6-48.625C163.752,64.748,178.41,55.583,192.985,51c13.561-4.264,25.328-6.163,35.681-6.163,40.528,0,59.37,29.117,79.08,59.578,17.892,27.653,36.393,56.246,72.382,62.664,32.018,5.71,60.3,15.106,84.069,27.929,24.762,13.359,44.067,30.168,57.377,49.959,20.547,30.551,26.417,67.355,17.448,109.388m-83.5-158.568c-22.594-12.19-49.455-21.117-79.835-26.535-32.67-5.826-49.736-32.2-66.24-57.709-11.392-17.607-23.173-35.813-39.924-46.693-18.823-12.225-42.059-13.741-71.038-4.63C170.928,68.885,143.7,93.947,119.759,132.7,97.54,168.655,80.471,212.921,71.695,257.343c-6.872,34.781-8.155,67.718-3.713,95.248,4.964,30.763,16.664,54.012,34.775,69.1,14.484,12.068,32.91,18.595,54.766,19.4q2.3.084,4.645.084c22.6,0,48.855-5.855,78.138-17.432,50.5-19.964,106.548-22.46,156-24.662,32.655-1.454,63.5-2.827,86.567-9.354,25.822-7.307,39.915-20.4,44.354-41.2,8.59-40.258,2.936-75.552-16.8-104.9-12.76-18.973-31.229-35.067-54.9-47.834M524.576,347.96c-9.2,43.109-61.8,45.451-128.392,48.416-49.664,2.211-105.956,4.718-156.876,24.849-30.962,12.241-58.449,18.013-81.687,17.159-21.242-.781-39.118-7.1-53.131-18.772C86.9,404.953,75.514,382.259,70.656,352.16c-4.392-27.216-3.114-59.821,3.7-94.291,8.715-44.111,25.659-88.059,47.712-123.747,23.6-38.189,50.306-62.85,77.236-71.315,12.748-4.008,23.809-5.793,33.541-5.793,38.1,0,55.808,27.37,74.334,56,16.818,25.993,34.21,52.872,68.04,58.9,30.1,5.367,56.684,14.2,79.025,26.252,23.276,12.557,41.422,28.358,53.934,46.962,19.314,28.718,24.833,63.313,16.4,102.825M446.088,198.906c-21.238-11.458-46.488-19.85-75.045-24.943-30.71-5.476-46.752-30.269-62.265-54.246-10.709-16.551-21.783-33.665-37.529-43.892-17.694-11.492-39.536-12.915-66.776-4.352-25.906,8.143-51.5,31.7-74,68.127-20.886,33.8-36.931,75.411-45.181,117.167-6.459,32.695-7.666,63.655-3.49,89.533,4.666,28.917,15.664,50.772,32.688,64.957,13.615,11.345,30.935,17.479,51.48,18.234q2.158.08,4.366.08c21.241,0,45.923-5.5,73.449-16.386C291.249,394.419,343.936,392.073,390.421,390c30.7-1.367,59.688-2.658,81.372-8.794,24.273-6.868,37.521-19.175,41.693-38.73,8.074-37.842,2.76-71.019-15.8-98.608-11.994-17.834-29.356-32.962-51.6-44.964M511,341.948c-8.645,40.522-58.09,42.724-120.688,45.511-46.685,2.078-99.6,4.434-147.464,23.357-29.1,11.507-54.944,16.932-76.785,16.13-19.968-.734-36.772-6.671-49.943-17.646-16.539-13.78-27.239-35.113-31.8-63.4-4.128-25.583-2.927-56.232,3.474-88.634C95.977,215.8,111.9,174.486,132.634,140.94c10.639-17.218,22.115-31.673,34.108-42.965C179.406,86.05,192.358,77.951,205.236,73.9c11.983-3.767,22.38-5.446,31.528-5.446,35.81,0,52.459,25.728,69.875,52.643,15.81,24.434,32.157,49.7,63.956,55.37,28.291,5.045,53.284,13.347,74.284,24.677,21.879,11.8,38.937,26.657,50.7,44.145,18.155,26.995,23.343,59.514,15.419,96.656M437.218,201.837c-19.965-10.771-43.7-18.66-70.543-23.447-28.867-5.148-43.947-28.453-58.53-50.991-10.066-15.558-20.475-31.644-35.277-41.259C256.235,75.338,235.7,74,210.1,82.05c-24.352,7.655-48.407,29.8-69.564,64.04-19.633,31.771-34.715,70.886-42.47,110.137-6.071,30.733-7.205,59.836-3.28,84.161,4.386,27.182,14.725,47.726,30.727,61.059,12.8,10.664,29.079,16.43,48.391,17.141q2.029.075,4.1.075c19.967,0,43.168-5.174,69.042-15.4,44.62-17.641,94.146-19.846,137.842-21.791,28.853-1.284,56.107-2.5,76.49-8.266,22.816-6.456,35.27-18.025,39.192-36.407,7.589-35.571,2.593-66.757-14.848-92.691-11.275-16.764-27.595-30.985-48.506-42.267M498.23,336.3c-8.127,38.091-54.6,40.16-113.446,42.78-43.884,1.954-93.623,4.169-138.617,21.957-27.358,10.816-51.651,15.912-72.178,15.162-18.77-.69-34.565-6.271-46.947-16.587-15.545-12.953-25.6-33.006-29.9-59.6-3.881-24.048-2.752-52.858,3.266-83.316,7.7-38.977,22.672-77.809,42.157-109.342,20.851-33.745,44.451-55.535,68.246-63.014,11.264-3.541,21.037-5.119,29.637-5.119,33.662,0,49.311,24.184,65.682,49.485,14.861,22.968,30.228,46.717,60.119,52.048,26.593,4.742,50.086,12.547,69.827,23.2,20.567,11.1,36.6,25.057,47.656,41.5,17.065,25.375,21.942,55.943,14.493,90.856m-69.351-131.7c-18.766-10.125-41.077-17.54-66.31-22.04-27.135-4.839-41.31-26.746-55.018-47.932C298.088,120,288.3,104.874,274.39,95.838c-15.634-10.154-34.934-11.413-59-3.846-22.89,7.2-45.5,28.012-65.39,60.2-18.455,29.866-32.632,66.633-39.921,103.529-5.707,28.889-6.774,56.246-3.084,79.112,4.123,25.551,13.841,44.862,28.883,57.4,12.03,10.024,27.334,15.444,45.488,16.112q1.908.07,3.858.07c18.769,0,40.578-4.863,64.9-14.478,41.943-16.582,88.5-18.655,129.572-20.484,27.123-1.208,52.741-2.348,71.9-7.77,21.447-6.069,33.153-16.943,36.84-34.223,7.135-33.437,2.439-62.752-13.956-87.13-10.6-15.758-25.939-29.126-45.6-39.73M486.23,330.983c-7.639,35.806-51.328,37.751-106.64,40.214-41.251,1.837-88.006,3.918-130.3,20.639C223.575,402,200.748,406.8,181.445,406.089c-17.644-.649-32.492-5.895-44.13-15.593-14.613-12.176-24.068-31.026-28.1-56.025-3.648-22.605-2.587-49.686,3.07-78.317,7.238-36.638,21.312-73.14,39.628-102.782,19.6-31.719,41.783-52.2,64.151-59.233,10.588-3.329,19.775-4.811,27.858-4.811,31.642,0,46.353,22.733,61.741,46.515,13.97,21.59,28.415,43.914,56.513,48.925,25,4.458,47.081,11.794,65.637,21.8,19.333,10.43,34.4,23.554,44.8,39.006,16.042,23.853,20.626,52.586,13.624,85.4m-65.191-123.8c-17.641-9.517-38.612-16.487-62.331-20.717-25.508-4.548-38.832-25.141-51.717-45.056-8.9-13.747-18.092-27.961-31.171-36.456-14.7-9.545-32.838-10.728-55.463-3.615-21.517,6.764-42.772,26.331-61.467,56.585C141.543,186,128.216,220.558,121.364,255.24,116,282.4,115,308.111,118.466,329.6c3.876,24.018,13.01,42.171,27.151,53.952,11.308,9.423,25.694,14.518,42.758,15.145q1.792.066,3.626.065c17.643,0,38.143-4.571,61.006-13.61,39.427-15.587,83.187-17.535,121.8-19.255,25.5-1.135,49.576-2.207,67.587-7.3,20.16-5.7,31.164-15.927,34.629-32.169,6.706-31.431,2.292-58.987-13.12-81.9-9.962-14.813-24.383-27.378-42.86-37.346M474.951,325.99c-7.181,33.657-48.248,35.486-100.241,37.8-38.775,1.726-82.725,3.684-122.481,19.4-24.174,9.557-45.635,14.066-63.776,13.4-16.586-.61-30.542-5.54-41.482-14.657-13.737-11.445-22.624-29.164-26.416-52.664-3.429-21.249-2.431-46.7,2.885-73.617,6.8-34.44,20.033-68.752,37.251-96.615,18.424-29.817,39.276-49.07,60.3-55.68,48.91-15.375,66.063,11.136,84.224,39.2,13.131,20.294,26.71,41.279,53.122,45.989,23.5,4.191,44.256,11.086,61.7,20.5,18.172,9.8,32.34,22.14,42.108,36.665,15.08,22.421,19.389,49.431,12.807,80.281M413.672,209.615c-16.582-8.945-36.3-15.5-58.592-19.474-23.976-4.276-36.5-23.633-48.614-42.353-8.361-12.921-17.007-26.284-29.3-34.269-13.814-8.972-30.868-10.083-52.136-3.4-20.226,6.358-40.206,24.751-57.778,53.191-16.307,26.39-28.834,58.877-35.275,91.478-5.043,25.527-5.986,49.7-2.725,69.9,3.644,22.577,12.23,39.64,25.522,50.715,10.63,8.857,24.153,13.647,40.193,14.237q1.684.062,3.409.062c16.584,0,35.854-4.3,57.345-12.793,37.061-14.652,78.2-16.484,114.489-18.1,23.966-1.067,46.6-2.075,63.532-6.866,18.95-5.362,29.294-14.971,32.551-30.238,6.3-29.546,2.154-55.448-12.332-76.989-9.364-13.924-22.919-25.735-40.289-35.106M464.348,321.3c-6.75,31.637-45.353,33.356-94.226,35.532-36.449,1.623-77.762,3.463-115.132,18.238-22.723,8.983-42.893,13.218-59.95,12.593-15.59-.573-28.71-5.209-38.993-13.777-12.912-10.758-21.267-27.414-24.832-49.5-3.223-19.974-2.286-43.9,2.712-69.2,6.4-32.374,18.831-64.627,35.015-90.819,17.319-28.027,36.92-46.126,56.684-52.339,45.975-14.454,62.1,10.467,79.17,36.85,12.343,19.077,25.106,38.8,49.934,43.23,22.088,3.94,41.6,10.421,58,19.267,17.083,9.216,30.4,20.812,39.583,34.465,14.175,21.076,18.225,46.467,12.038,75.465M351.669,193.6c-22.538-4.02-34.311-22.215-45.7-39.812-7.859-12.146-15.986-24.706-27.542-32.213-12.986-8.433-29.016-9.479-49.007-3.194-19.013,5.976-37.793,23.266-54.312,50-15.328,24.806-27.1,55.344-33.159,85.989-4.74,24-5.626,46.717-2.561,65.709,3.425,21.222,11.5,37.262,23.99,47.672,10.805,9,24.484,13.506,40.927,13.5,15.552,0,33.576-4.03,53.962-12.09,34.837-13.773,73.5-15.494,107.62-17.014,22.527-1,43.805-1.951,59.719-6.454,17.814-5.04,27.537-14.072,30.6-28.424,5.926-27.772,2.026-52.121-11.592-72.369-17.363-25.817-49.5-43.558-92.948-51.305M454.381,316.883c-6.345,29.739-42.632,31.355-88.573,33.4-34.262,1.525-73.1,3.255-108.225,17.143-41.253,16.31-72.546,15.936-93.006-1.112-12.138-10.114-19.991-25.769-23.341-46.534-3.03-18.776-2.148-41.269,2.55-65.049,6.012-30.431,17.7-60.749,32.915-85.369,16.28-26.346,34.7-43.358,53.283-49.2a77.467,77.467,0,0,1,23.138-4c26.282,0,38.5,18.882,51.281,38.636,11.6,17.932,23.6,36.475,46.938,40.636,42.933,7.656,74.651,25.122,91.725,50.508,13.324,19.812,17.131,43.678,11.315,70.936M348.463,196.847c-21.186-3.778-32.253-20.882-42.955-37.423-7.388-11.417-15.026-23.224-25.89-30.28-12.206-7.928-27.276-8.91-46.067-3-17.872,5.618-35.526,21.87-51.054,47-14.408,23.317-25.478,52.024-31.169,80.83-4.456,22.556-5.289,43.914-2.407,61.766,3.219,19.949,10.807,35.026,22.55,44.812,10.158,8.464,23.016,12.7,38.472,12.7,14.619,0,31.562-3.789,50.725-11.365,32.747-12.946,69.094-14.565,101.163-15.992,21.176-.943,41.177-1.834,56.137-6.066,16.744-4.739,25.884-13.229,28.762-26.719,5.57-26.106,1.9-48.994-10.9-68.027-16.322-24.268-46.534-40.945-87.371-48.228m96.55,115.888c-5.964,27.955-40.074,29.473-83.259,31.4-32.207,1.435-68.71,3.06-101.731,16.114-38.779,15.332-68.193,14.98-87.426-1.046-11.409-9.506-18.791-24.223-21.941-43.741-2.848-17.649-2.02-38.792,2.4-61.146,5.651-28.605,16.639-57.1,30.939-80.247,15.3-24.765,32.623-40.757,50.086-46.247a72.847,72.847,0,0,1,21.751-3.756c24.7,0,36.189,17.748,48.2,36.316,10.907,16.856,22.184,34.286,44.122,38.2,40.358,7.2,70.172,23.615,86.222,47.478,12.524,18.623,16.1,41.058,10.636,66.68M345.45,199.9c-19.915-3.551-30.318-19.629-40.378-35.177-6.944-10.732-14.126-21.831-24.337-28.463-11.474-7.453-25.639-8.374-43.3-2.823-16.8,5.281-33.394,20.558-47.991,44.179-13.544,21.919-23.949,48.9-29.3,75.981-4.189,21.2-4.971,41.279-2.263,58.06,3.026,18.752,10.158,32.924,21.2,42.122,9.547,7.955,21.634,11.933,36.163,11.933,13.742,0,29.669-3.561,47.682-10.682C293.7,342.862,327.872,341.34,358.016,340c41.306-1.839,73.932-3.292,79.8-30.818,5.236-24.54,1.79-46.055-10.243-63.946-15.342-22.812-43.741-38.488-82.128-45.334m90.756,108.934c-5.607,26.278-37.67,27.706-78.264,29.513-30.274,1.348-64.587,2.876-95.626,15.147-36.453,14.412-64.1,14.08-82.181-.983-10.724-8.936-17.663-22.769-20.625-41.117-2.677-16.59-1.9-36.465,2.253-57.477,5.312-26.889,15.641-53.678,29.083-75.433,14.385-23.279,30.665-38.311,47.081-43.472,38.184-12,51.578,8.694,65.757,30.607,10.252,15.845,20.853,32.229,41.475,35.906,37.936,6.765,65.962,22.2,81.048,44.629,11.773,17.505,15.137,38.594,10,62.679" transform="translate(0 0)" fill="#fa7d09"/>
    </g>
  </g>
</svg>
